G04*
G04 #@! TF.GenerationSoftware,Altium Limited,Altium Designer,20.0.2 (26)*
G04*
G04 Layer_Color=65535*
%FSLAX44Y44*%
%MOMM*%
G71*
G01*
G75*
%ADD10C,0.2500*%
%ADD11C,0.2000*%
%ADD12C,0.2540*%
%ADD13R,1.9000X0.8000*%
D10*
X1357250Y1148550D02*
G03*
X1357250Y1148550I-1250J0D01*
G01*
X1452500D02*
G03*
X1452500Y1148550I-1250J0D01*
G01*
X1547750D02*
G03*
X1547750Y1148550I-1250J0D01*
G01*
X1655700D02*
G03*
X1655700Y1148550I-1250J0D01*
G01*
D11*
X1404100Y1147050D02*
G03*
X1364500Y1147050I-19800J15000D01*
G01*
X1499350D02*
G03*
X1459750Y1147050I-19800J15000D01*
G01*
X1594600D02*
G03*
X1555000Y1147050I-19800J15000D01*
G01*
X1702550D02*
G03*
X1662950Y1147050I-19800J15000D01*
G01*
X1631950Y762000D02*
Y787400D01*
X1682750D01*
Y762000D02*
Y787400D01*
X1631950Y762000D02*
X1682750D01*
X1364500Y1147050D02*
X1404100D01*
X1668780Y1016000D02*
X1676400D01*
X1668780Y965200D02*
Y1016000D01*
Y965200D02*
X1684020D01*
Y1016000D01*
X1676400D02*
X1684020D01*
X1676400Y962914D02*
Y965200D01*
Y1016000D02*
Y1018286D01*
X1363980Y1016000D02*
X1371600D01*
X1363980Y965200D02*
Y1016000D01*
Y965200D02*
X1379220D01*
Y1016000D01*
X1371600D02*
X1379220D01*
X1371600Y962914D02*
Y965200D01*
Y1016000D02*
Y1018286D01*
X1514500Y1047300D02*
X1533500D01*
X1514500D02*
Y1086300D01*
X1533500Y1047300D02*
Y1086300D01*
X1412900Y1047300D02*
X1431900D01*
X1412900D02*
Y1086300D01*
X1431900Y1047300D02*
Y1086300D01*
X1459750Y1147050D02*
X1499350D01*
X1397000Y762000D02*
Y787400D01*
X1447800D01*
Y762000D02*
Y787400D01*
X1397000Y762000D02*
X1447800D01*
X1587500D02*
Y787400D01*
X1485900Y762000D02*
X1587500D01*
X1485900Y787400D02*
X1587500D01*
X1485900Y762000D02*
Y787400D01*
X1555000Y1147050D02*
X1594600D01*
X1446530Y984250D02*
X1454150D01*
X1446530Y933450D02*
Y984250D01*
Y933450D02*
X1461770D01*
Y984250D01*
X1454150D02*
X1461770D01*
X1454150Y931164D02*
Y933450D01*
Y984250D02*
Y986536D01*
X1514500Y920300D02*
X1533500D01*
X1514500D02*
Y959300D01*
X1533500Y920300D02*
Y959300D01*
X1622450Y1047300D02*
X1641450D01*
X1622450D02*
Y1086300D01*
X1641450Y1047300D02*
Y1086300D01*
X1662950Y1147050D02*
X1702550D01*
X1586230Y984250D02*
X1593850D01*
X1586230Y933450D02*
Y984250D01*
Y933450D02*
X1601470D01*
Y984250D01*
X1593850D02*
X1601470D01*
X1593850Y931164D02*
Y933450D01*
Y984250D02*
Y986536D01*
D12*
X1587881Y1012571D02*
Y1027806D01*
X1595499D01*
X1598038Y1025267D01*
Y1020189D01*
X1595499Y1017649D01*
X1587881D01*
X1592959D02*
X1598038Y1012571D01*
X1610734D02*
Y1027806D01*
X1603116Y1020189D01*
X1613273D01*
X1448181Y1012571D02*
Y1027806D01*
X1455798D01*
X1458338Y1025267D01*
Y1020189D01*
X1455798Y1017649D01*
X1448181D01*
X1453259D02*
X1458338Y1012571D01*
X1463416Y1025267D02*
X1465955Y1027806D01*
X1471034D01*
X1473573Y1025267D01*
Y1022728D01*
X1471034Y1020189D01*
X1468494D01*
X1471034D01*
X1473573Y1017649D01*
Y1015110D01*
X1471034Y1012571D01*
X1465955D01*
X1463416Y1015110D01*
X1670431Y1044321D02*
Y1059556D01*
X1678049D01*
X1680588Y1057017D01*
Y1051938D01*
X1678049Y1049399D01*
X1670431D01*
X1675509D02*
X1680588Y1044321D01*
X1695823D02*
X1685666D01*
X1695823Y1054478D01*
Y1057017D01*
X1693284Y1059556D01*
X1688205D01*
X1685666Y1057017D01*
X1365631Y1044321D02*
Y1059556D01*
X1373248D01*
X1375788Y1057017D01*
Y1051938D01*
X1373248Y1049399D01*
X1365631D01*
X1370709D02*
X1375788Y1044321D01*
X1380866D02*
X1385944D01*
X1383405D01*
Y1059556D01*
X1380866Y1057017D01*
X1664713Y1198117D02*
Y1208274D01*
X1662173Y1210813D01*
X1657095D01*
X1654556Y1208274D01*
Y1198117D01*
X1657095Y1195578D01*
X1662173D01*
X1659634Y1200656D02*
X1664713Y1195578D01*
X1662173D02*
X1664713Y1198117D01*
X1677409Y1195578D02*
Y1210813D01*
X1669791Y1203195D01*
X1679948D01*
X1556763Y1198117D02*
Y1208274D01*
X1554223Y1210813D01*
X1549145D01*
X1546606Y1208274D01*
Y1198117D01*
X1549145Y1195578D01*
X1554223D01*
X1551684Y1200656D02*
X1556763Y1195578D01*
X1554223D02*
X1556763Y1198117D01*
X1561841Y1208274D02*
X1564380Y1210813D01*
X1569459D01*
X1571998Y1208274D01*
Y1205735D01*
X1569459Y1203195D01*
X1566919D01*
X1569459D01*
X1571998Y1200656D01*
Y1198117D01*
X1569459Y1195578D01*
X1564380D01*
X1561841Y1198117D01*
X1461513D02*
Y1208274D01*
X1458974Y1210813D01*
X1453895D01*
X1451356Y1208274D01*
Y1198117D01*
X1453895Y1195578D01*
X1458974D01*
X1456434Y1200656D02*
X1461513Y1195578D01*
X1458974D02*
X1461513Y1198117D01*
X1476748Y1195578D02*
X1466591D01*
X1476748Y1205735D01*
Y1208274D01*
X1474209Y1210813D01*
X1469130D01*
X1466591Y1208274D01*
X1366263Y1198117D02*
Y1208274D01*
X1363723Y1210813D01*
X1358645D01*
X1356106Y1208274D01*
Y1198117D01*
X1358645Y1195578D01*
X1363723D01*
X1361184Y1200656D02*
X1366263Y1195578D01*
X1363723D02*
X1366263Y1198117D01*
X1371341Y1195578D02*
X1376419D01*
X1373880D01*
Y1210813D01*
X1371341Y1208274D01*
X1487424Y796036D02*
Y811271D01*
X1495042D01*
X1497581Y808732D01*
Y803653D01*
X1495042Y801114D01*
X1487424D01*
X1502659Y808732D02*
X1505198Y811271D01*
X1510277D01*
X1512816Y808732D01*
Y806193D01*
X1510277Y803653D01*
X1507737D01*
X1510277D01*
X1512816Y801114D01*
Y798575D01*
X1510277Y796036D01*
X1505198D01*
X1502659Y798575D01*
X1398524Y796036D02*
Y811271D01*
X1406142D01*
X1408681Y808732D01*
Y803653D01*
X1406142Y801114D01*
X1398524D01*
X1423916Y796036D02*
X1413759D01*
X1423916Y806193D01*
Y808732D01*
X1421377Y811271D01*
X1416298D01*
X1413759Y808732D01*
X1633474Y796036D02*
Y811271D01*
X1641091D01*
X1643631Y808732D01*
Y803653D01*
X1641091Y801114D01*
X1633474D01*
X1648709Y796036D02*
X1653787D01*
X1651248D01*
Y811271D01*
X1648709Y808732D01*
X1515999Y1006724D02*
Y991489D01*
X1523616D01*
X1526156Y994028D01*
Y1004185D01*
X1523616Y1006724D01*
X1515999D01*
X1538852Y991489D02*
Y1006724D01*
X1531234Y999107D01*
X1541391D01*
X1623949Y1133724D02*
Y1118489D01*
X1631566D01*
X1634106Y1121028D01*
Y1131185D01*
X1631566Y1133724D01*
X1623949D01*
X1639184Y1131185D02*
X1641723Y1133724D01*
X1646802D01*
X1649341Y1131185D01*
Y1128646D01*
X1646802Y1126106D01*
X1644262D01*
X1646802D01*
X1649341Y1123567D01*
Y1121028D01*
X1646802Y1118489D01*
X1641723D01*
X1639184Y1121028D01*
X1515999Y1133724D02*
Y1118489D01*
X1523616D01*
X1526156Y1121028D01*
Y1131185D01*
X1523616Y1133724D01*
X1515999D01*
X1541391Y1118489D02*
X1531234D01*
X1541391Y1128646D01*
Y1131185D01*
X1538852Y1133724D01*
X1533773D01*
X1531234Y1131185D01*
X1414399Y1133724D02*
Y1118489D01*
X1422016D01*
X1424556Y1121028D01*
Y1131185D01*
X1422016Y1133724D01*
X1414399D01*
X1429634Y1118489D02*
X1434712D01*
X1432173D01*
Y1133724D01*
X1429634Y1131185D01*
D13*
X1524000Y1083300D02*
D03*
X1422400D02*
D03*
X1524000Y956300D02*
D03*
X1631950Y1083300D02*
D03*
M02*
