G04*
G04 #@! TF.GenerationSoftware,Altium Limited,Altium Designer,20.0.2 (26)*
G04*
G04 Layer_Color=128*
%FSLAX44Y44*%
%MOMM*%
G71*
G01*
G75*
%ADD27C,0.0508*%
D27*
X1665550Y774700D02*
X1674550D01*
X1670050Y770200D02*
Y779200D01*
X1640150Y774700D02*
X1649150D01*
X1644650Y770200D02*
Y779200D01*
X1392500Y1162050D02*
X1401500D01*
X1397000Y1157550D02*
Y1166550D01*
X1379800Y1162050D02*
X1388800D01*
X1384300Y1157550D02*
Y1166550D01*
X1367100Y1162050D02*
X1376100D01*
X1371600Y1157550D02*
Y1166550D01*
X1672150Y1028700D02*
X1680650D01*
X1676400Y1024450D02*
Y1032950D01*
X1672150Y952500D02*
X1680650D01*
X1676400Y948250D02*
Y956750D01*
X1367350Y1028700D02*
X1375850D01*
X1371600Y1024450D02*
Y1032950D01*
X1367350Y952500D02*
X1375850D01*
X1371600Y948250D02*
Y956750D01*
X1519500Y1102300D02*
X1528500D01*
X1524000Y1097800D02*
Y1106800D01*
X1519500Y1031300D02*
X1528500D01*
X1524000Y1026800D02*
Y1035800D01*
X1417900Y1102300D02*
X1426900D01*
X1422400Y1097800D02*
Y1106800D01*
X1417900Y1031300D02*
X1426900D01*
X1422400Y1026800D02*
Y1035800D01*
X1487750Y1162050D02*
X1496750D01*
X1492250Y1157550D02*
Y1166550D01*
X1475050Y1162050D02*
X1484050D01*
X1479550Y1157550D02*
Y1166550D01*
X1462350Y1162050D02*
X1471350D01*
X1466850Y1157550D02*
Y1166550D01*
X1430600Y774700D02*
X1439600D01*
X1435100Y770200D02*
Y779200D01*
X1405200Y774700D02*
X1414200D01*
X1409700Y770200D02*
Y779200D01*
X1494100Y774700D02*
X1503100D01*
X1498600Y770200D02*
Y779200D01*
X1519500Y774700D02*
X1528500D01*
X1524000Y770200D02*
Y779200D01*
X1544900Y774700D02*
X1553900D01*
X1549400Y770200D02*
Y779200D01*
X1570300Y774700D02*
X1579300D01*
X1574800Y770200D02*
Y779200D01*
X1583000Y1162050D02*
X1592000D01*
X1587500Y1157550D02*
Y1166550D01*
X1570300Y1162050D02*
X1579300D01*
X1574800Y1157550D02*
Y1166550D01*
X1557600Y1162050D02*
X1566600D01*
X1562100Y1157550D02*
Y1166550D01*
X1449900Y996950D02*
X1458400D01*
X1454150Y992700D02*
Y1001200D01*
X1449900Y920750D02*
X1458400D01*
X1454150Y916500D02*
Y925000D01*
X1519500Y975300D02*
X1528500D01*
X1524000Y970800D02*
Y979800D01*
X1519500Y904300D02*
X1528500D01*
X1524000Y899800D02*
Y908800D01*
X1627450Y1102300D02*
X1636450D01*
X1631950Y1097800D02*
Y1106800D01*
X1627450Y1031300D02*
X1636450D01*
X1631950Y1026800D02*
Y1035800D01*
X1690950Y1162050D02*
X1699950D01*
X1695450Y1157550D02*
Y1166550D01*
X1678250Y1162050D02*
X1687250D01*
X1682750Y1157550D02*
Y1166550D01*
X1665550Y1162050D02*
X1674550D01*
X1670050Y1157550D02*
Y1166550D01*
X1589600Y996950D02*
X1598100D01*
X1593850Y992700D02*
Y1001200D01*
X1589600Y920750D02*
X1598100D01*
X1593850Y916500D02*
Y925000D01*
M02*
