G04*
G04 #@! TF.GenerationSoftware,Altium Limited,Altium Designer,20.0.2 (26)*
G04*
G04 Layer_Physical_Order=2*
G04 Layer_Color=16711680*
%FSLAX44Y44*%
%MOMM*%
G71*
G01*
G75*
%ADD12C,0.2540*%
%ADD20R,1.5000X1.5000*%
%ADD21C,1.5000*%
%ADD22O,1.0000X2.0000*%
%ADD23O,1.0000X2.0000*%
%ADD24C,1.4000*%
%ADD25R,1.5000X1.5000*%
D12*
X1422400Y1102300D02*
X1524000D01*
X1582928Y1043372D01*
Y861822D02*
Y1043372D01*
Y861822D02*
X1670050Y774700D01*
X1593850Y920750D02*
X1681480Y833120D01*
Y763270D02*
Y833120D01*
X1638808Y763270D02*
X1681480D01*
X1609852Y792226D02*
X1638808Y763270D01*
X1516126Y792226D02*
X1609852D01*
X1498600Y774700D02*
X1516126Y792226D01*
X1563370Y763270D02*
X1574800Y774700D01*
X1381760Y763270D02*
X1563370D01*
X1371600Y773430D02*
X1381760Y763270D01*
X1371600Y773430D02*
Y952500D01*
X1492250Y1130300D02*
Y1162050D01*
Y1130300D02*
X1503680Y1118870D01*
X1615380D01*
X1631950Y1102300D01*
X1657350Y1028700D02*
X1676400D01*
X1572440Y1113610D02*
X1657350Y1028700D01*
X1362890Y1113610D02*
X1572440D01*
X1362710Y1113790D02*
X1362890Y1113610D01*
X1362710Y1113790D02*
Y1173480D01*
X1368298Y1179068D01*
X1376172D01*
X1384300Y1170940D01*
Y1162050D02*
Y1170940D01*
X1409700Y774700D02*
Y861000D01*
X1524000Y975300D01*
X1587500Y1162050D02*
Y1173480D01*
X1581150Y1179830D02*
X1587500Y1173480D01*
X1402080Y1179830D02*
X1581150D01*
X1397000Y1174750D02*
X1402080Y1179830D01*
X1397000Y1162050D02*
Y1174750D01*
X1371600Y1150620D02*
Y1162050D01*
Y1150620D02*
X1374140Y1148080D01*
X1464310D01*
X1466850Y1150620D01*
Y1162050D01*
X1670050Y1150620D02*
Y1162050D01*
X1666494Y1147064D02*
X1670050Y1150620D01*
X1564640Y1147064D02*
X1666494D01*
X1562100Y1149604D02*
X1564640Y1147064D01*
X1562100Y1149604D02*
Y1162050D01*
X1631950Y1102300D02*
X1680150D01*
X1695450Y1117600D01*
Y1162050D01*
D20*
X1670050Y774700D02*
D03*
X1435100D02*
D03*
X1574800D02*
D03*
D21*
X1644650D02*
D03*
X1524000Y1031300D02*
D03*
X1422400D02*
D03*
X1409700Y774700D02*
D03*
X1498600D02*
D03*
X1524000D02*
D03*
X1549400D02*
D03*
X1524000Y904300D02*
D03*
X1631950Y1031300D02*
D03*
D22*
X1397000Y1162050D02*
D03*
X1371600D02*
D03*
X1492250D02*
D03*
X1466850D02*
D03*
X1587500D02*
D03*
X1562100D02*
D03*
X1695450D02*
D03*
X1670050D02*
D03*
D23*
X1384300D02*
D03*
X1479550D02*
D03*
X1574800D02*
D03*
X1682750D02*
D03*
D24*
X1676400Y1028700D02*
D03*
Y952500D02*
D03*
X1371600Y1028700D02*
D03*
Y952500D02*
D03*
X1454150Y996950D02*
D03*
Y920750D02*
D03*
X1593850Y996950D02*
D03*
Y920750D02*
D03*
D25*
X1524000Y1102300D02*
D03*
X1422400D02*
D03*
X1524000Y975300D02*
D03*
X1631950Y1102300D02*
D03*
M02*
