G04*
G04 #@! TF.GenerationSoftware,Altium Limited,Altium Designer,20.0.2 (26)*
G04*
G04 Layer_Physical_Order=1*
G04 Layer_Color=255*
%FSLAX44Y44*%
%MOMM*%
G71*
G01*
G75*
%ADD12C,0.2540*%
%ADD20R,1.5000X1.5000*%
%ADD21C,1.5000*%
%ADD22O,1.0000X2.0000*%
%ADD23O,1.0000X2.0000*%
%ADD24C,1.4000*%
%ADD25R,1.5000X1.5000*%
G36*
X1778000Y736600D02*
X1301750D01*
Y1263650D01*
X1778000D01*
Y736600D01*
D02*
G37*
%LPC*%
G36*
X1634425Y1258565D02*
X1423670D01*
Y1228092D01*
X1634425D01*
Y1258565D01*
D02*
G37*
G36*
X1695450Y1174655D02*
X1693482Y1174396D01*
X1691647Y1173636D01*
X1690072Y1172428D01*
X1689735Y1171988D01*
X1688465D01*
X1688128Y1172428D01*
X1686552Y1173636D01*
X1684718Y1174396D01*
X1682750Y1174655D01*
X1680782Y1174396D01*
X1678947Y1173636D01*
X1677372Y1172428D01*
X1677035Y1171988D01*
X1675765D01*
X1675428Y1172428D01*
X1673853Y1173636D01*
X1672018Y1174396D01*
X1670050Y1174655D01*
X1668082Y1174396D01*
X1666248Y1173636D01*
X1664672Y1172428D01*
X1663464Y1170853D01*
X1662704Y1169018D01*
X1662445Y1167050D01*
Y1157050D01*
X1662704Y1155082D01*
X1663464Y1153248D01*
X1664672Y1151672D01*
X1666165Y1150527D01*
Y1071009D01*
X1635750Y1040593D01*
X1634571Y1041081D01*
X1631950Y1041427D01*
X1629329Y1041081D01*
X1626887Y1040070D01*
X1624789Y1038461D01*
X1623180Y1036363D01*
X1622692Y1035185D01*
X1610928D01*
X1609441Y1034889D01*
X1608181Y1034047D01*
X1580181Y1006047D01*
X1580181Y1006047D01*
X1539155Y965021D01*
X1535211D01*
X1534040Y965260D01*
Y985340D01*
X1527885D01*
Y1022042D01*
X1529063Y1022530D01*
X1531161Y1024139D01*
X1532770Y1026237D01*
X1533782Y1028679D01*
X1534127Y1031300D01*
X1533782Y1033921D01*
X1533293Y1035100D01*
X1590247Y1092053D01*
X1591089Y1093313D01*
X1591385Y1094800D01*
Y1150527D01*
X1592878Y1151672D01*
X1594086Y1153248D01*
X1594846Y1155082D01*
X1595105Y1157050D01*
Y1167050D01*
X1594846Y1169018D01*
X1594086Y1170853D01*
X1592878Y1172428D01*
X1591302Y1173636D01*
X1589468Y1174396D01*
X1587500Y1174655D01*
X1585532Y1174396D01*
X1583698Y1173636D01*
X1582122Y1172428D01*
X1581785Y1171988D01*
X1580515D01*
X1580178Y1172428D01*
X1578602Y1173636D01*
X1576768Y1174396D01*
X1574800Y1174655D01*
X1572832Y1174396D01*
X1570997Y1173636D01*
X1569422Y1172428D01*
X1569085Y1171988D01*
X1567815D01*
X1567478Y1172428D01*
X1565903Y1173636D01*
X1564068Y1174396D01*
X1562100Y1174655D01*
X1560132Y1174396D01*
X1558297Y1173636D01*
X1556722Y1172428D01*
X1555514Y1170853D01*
X1554754Y1169018D01*
X1554495Y1167050D01*
Y1157050D01*
X1554754Y1155082D01*
X1555514Y1153248D01*
X1556722Y1151672D01*
X1558297Y1150464D01*
X1560132Y1149704D01*
X1562100Y1149445D01*
X1564068Y1149704D01*
X1565903Y1150464D01*
X1567478Y1151672D01*
X1567815Y1152112D01*
X1569085D01*
X1569422Y1151672D01*
X1570915Y1150527D01*
Y1101175D01*
X1563031Y1093291D01*
X1534040D01*
Y1112340D01*
X1513960D01*
Y1093119D01*
X1513339Y1092995D01*
X1512079Y1092153D01*
X1435513Y1015587D01*
X1434671Y1014327D01*
X1434375Y1012840D01*
Y936640D01*
X1434671Y935154D01*
X1435513Y933893D01*
X1445239Y924167D01*
X1444856Y923240D01*
X1444528Y920750D01*
X1444856Y918260D01*
X1445817Y915939D01*
X1447346Y913946D01*
X1449339Y912417D01*
X1451660Y911456D01*
X1454150Y911128D01*
X1456640Y911456D01*
X1458961Y912417D01*
X1460954Y913946D01*
X1462483Y915939D01*
X1463444Y918260D01*
X1463772Y920750D01*
X1463444Y923240D01*
X1462483Y925561D01*
X1460954Y927554D01*
X1458961Y929083D01*
X1456640Y930044D01*
X1454150Y930372D01*
X1451660Y930044D01*
X1450733Y929661D01*
X1442144Y938249D01*
Y979003D01*
X1443318Y979489D01*
X1514707Y908100D01*
X1514218Y906921D01*
X1513873Y904300D01*
X1514218Y901679D01*
X1515230Y899237D01*
X1516839Y897139D01*
X1518937Y895530D01*
X1521379Y894518D01*
X1524000Y894173D01*
X1526621Y894518D01*
X1529063Y895530D01*
X1531161Y897139D01*
X1532770Y899237D01*
X1533782Y901679D01*
X1534127Y904300D01*
X1533782Y906921D01*
X1532770Y909363D01*
X1531161Y911461D01*
X1529063Y913070D01*
X1526621Y914081D01*
X1524000Y914427D01*
X1521379Y914081D01*
X1520200Y913593D01*
X1447224Y986569D01*
Y988639D01*
X1448494Y989265D01*
X1449339Y988617D01*
X1451660Y987656D01*
X1454150Y987328D01*
X1456640Y987656D01*
X1457567Y988039D01*
X1545515Y900091D01*
Y783958D01*
X1544337Y783470D01*
X1542239Y781861D01*
X1540630Y779763D01*
X1539618Y777321D01*
X1539273Y774700D01*
X1539618Y772079D01*
X1540630Y769637D01*
X1542239Y767539D01*
X1544337Y765930D01*
X1546779Y764918D01*
X1549400Y764573D01*
X1552021Y764918D01*
X1554463Y765930D01*
X1556561Y767539D01*
X1558170Y769637D01*
X1559182Y772079D01*
X1559527Y774700D01*
X1559182Y777321D01*
X1558170Y779763D01*
X1556561Y781861D01*
X1554463Y783470D01*
X1553285Y783958D01*
Y901700D01*
X1552989Y903187D01*
X1552147Y904447D01*
X1463061Y993533D01*
X1463444Y994460D01*
X1463637Y995921D01*
X1464978Y996376D01*
X1502965Y958389D01*
X1504225Y957547D01*
X1505712Y957251D01*
X1540764D01*
X1542251Y957547D01*
X1543511Y958389D01*
X1577870Y992748D01*
X1579043Y992262D01*
Y836422D01*
X1579339Y834935D01*
X1580181Y833675D01*
X1635357Y778500D01*
X1634868Y777321D01*
X1634523Y774700D01*
X1634868Y772079D01*
X1635880Y769637D01*
X1637489Y767539D01*
X1639587Y765930D01*
X1642029Y764918D01*
X1644650Y764573D01*
X1647271Y764918D01*
X1649713Y765930D01*
X1650536Y766562D01*
X1651782Y765997D01*
X1651886Y765078D01*
X1644311Y757503D01*
X1546691D01*
X1533293Y770900D01*
X1533782Y772079D01*
X1534127Y774700D01*
X1533782Y777321D01*
X1532770Y779763D01*
X1531161Y781861D01*
X1529063Y783470D01*
X1526621Y784482D01*
X1524000Y784827D01*
X1521379Y784482D01*
X1518937Y783470D01*
X1516839Y781861D01*
X1515230Y779763D01*
X1514218Y777321D01*
X1513873Y774700D01*
X1514218Y772079D01*
X1515230Y769637D01*
X1516839Y767539D01*
X1518937Y765930D01*
X1521379Y764918D01*
X1524000Y764573D01*
X1526621Y764918D01*
X1527800Y765407D01*
X1536385Y756821D01*
X1535899Y755648D01*
X1480820D01*
Y737870D01*
X1541764D01*
Y749726D01*
X1543034Y750405D01*
X1543595Y750029D01*
X1545082Y749733D01*
X1645920D01*
X1647407Y750029D01*
X1648667Y750871D01*
X1658827Y761031D01*
X1659669Y762291D01*
X1659897Y763437D01*
X1659965Y763778D01*
X1660757Y764660D01*
X1661235Y764660D01*
X1680090D01*
Y784740D01*
X1660010Y784740D01*
X1659965Y785991D01*
Y930571D01*
X1672983Y943589D01*
X1673910Y943206D01*
X1676400Y942878D01*
X1678890Y943206D01*
X1681211Y944167D01*
X1683204Y945696D01*
X1684733Y947689D01*
X1685694Y950010D01*
X1686022Y952500D01*
X1685694Y954990D01*
X1684733Y957311D01*
X1683204Y959304D01*
X1681211Y960833D01*
X1678890Y961794D01*
X1676400Y962122D01*
X1673910Y961794D01*
X1671589Y960833D01*
X1669596Y959304D01*
X1668067Y957311D01*
X1667106Y954990D01*
X1666778Y952500D01*
X1667106Y950010D01*
X1667489Y949083D01*
X1653333Y934927D01*
X1652491Y933667D01*
X1652195Y932180D01*
Y783166D01*
X1650925Y782540D01*
X1649713Y783470D01*
X1647271Y784482D01*
X1644650Y784827D01*
X1642029Y784482D01*
X1640850Y783993D01*
X1586813Y838031D01*
Y912524D01*
X1588083Y913150D01*
X1589039Y912417D01*
X1591360Y911456D01*
X1593850Y911128D01*
X1596340Y911456D01*
X1598661Y912417D01*
X1600654Y913946D01*
X1602183Y915939D01*
X1603144Y918260D01*
X1603472Y920750D01*
X1603144Y923240D01*
X1602183Y925561D01*
X1600654Y927554D01*
X1598661Y929083D01*
X1596340Y930044D01*
X1593850Y930372D01*
X1591360Y930044D01*
X1589039Y929083D01*
X1588083Y928350D01*
X1586813Y928976D01*
Y988724D01*
X1588083Y989351D01*
X1589039Y988617D01*
X1591360Y987656D01*
X1593850Y987328D01*
X1596340Y987656D01*
X1598661Y988617D01*
X1600654Y990146D01*
X1602183Y992139D01*
X1602567Y993065D01*
X1628140D01*
X1629627Y993361D01*
X1630887Y994203D01*
X1665629Y1028945D01*
X1666824Y1028345D01*
X1667106Y1026210D01*
X1668067Y1023889D01*
X1669596Y1021896D01*
X1671589Y1020367D01*
X1673910Y1019406D01*
X1676400Y1019078D01*
X1678890Y1019406D01*
X1681211Y1020367D01*
X1683204Y1021896D01*
X1684733Y1023889D01*
X1685694Y1026210D01*
X1686022Y1028700D01*
X1685694Y1031190D01*
X1684733Y1033511D01*
X1683204Y1035504D01*
X1681211Y1037033D01*
X1678890Y1037994D01*
X1676755Y1038276D01*
X1676155Y1039471D01*
X1685497Y1048813D01*
X1686339Y1050073D01*
X1686635Y1051560D01*
Y1150527D01*
X1688128Y1151672D01*
X1688465Y1152112D01*
X1689735D01*
X1690072Y1151672D01*
X1691647Y1150464D01*
X1693482Y1149704D01*
X1695450Y1149445D01*
X1697418Y1149704D01*
X1699252Y1150464D01*
X1700828Y1151672D01*
X1702036Y1153248D01*
X1702796Y1155082D01*
X1703055Y1157050D01*
Y1167050D01*
X1702796Y1169018D01*
X1702036Y1170853D01*
X1700828Y1172428D01*
X1699252Y1173636D01*
X1697418Y1174396D01*
X1695450Y1174655D01*
D02*
G37*
G36*
X1492250D02*
X1490282Y1174396D01*
X1488448Y1173636D01*
X1486872Y1172428D01*
X1486535Y1171988D01*
X1485265D01*
X1484928Y1172428D01*
X1483353Y1173636D01*
X1481518Y1174396D01*
X1479550Y1174655D01*
X1477582Y1174396D01*
X1475748Y1173636D01*
X1474172Y1172428D01*
X1473835Y1171988D01*
X1472565D01*
X1472228Y1172428D01*
X1470652Y1173636D01*
X1468818Y1174396D01*
X1466850Y1174655D01*
X1464882Y1174396D01*
X1463047Y1173636D01*
X1461472Y1172428D01*
X1460264Y1170853D01*
X1459504Y1169018D01*
X1459245Y1167050D01*
Y1157050D01*
X1459504Y1155082D01*
X1460264Y1153248D01*
X1461472Y1151672D01*
X1462965Y1150527D01*
Y1148359D01*
X1426946Y1112340D01*
X1412360D01*
Y1092260D01*
X1428007D01*
X1428493Y1091087D01*
X1375017Y1037611D01*
X1374090Y1037994D01*
X1371600Y1038322D01*
X1369110Y1037994D01*
X1366789Y1037033D01*
X1364796Y1035504D01*
X1363267Y1033511D01*
X1362306Y1031190D01*
X1361978Y1028700D01*
X1362306Y1026210D01*
X1363267Y1023889D01*
X1364796Y1021896D01*
X1366789Y1020367D01*
X1369110Y1019406D01*
X1371600Y1019078D01*
X1374090Y1019406D01*
X1376411Y1020367D01*
X1378404Y1021896D01*
X1379933Y1023889D01*
X1380894Y1026210D01*
X1381222Y1028700D01*
X1380894Y1031190D01*
X1380511Y1032117D01*
X1482297Y1133903D01*
X1483139Y1135163D01*
X1483435Y1136650D01*
Y1150527D01*
X1484928Y1151672D01*
X1485265Y1152112D01*
X1486535D01*
X1486872Y1151672D01*
X1488365Y1150527D01*
Y1102759D01*
X1426200Y1040593D01*
X1425021Y1041081D01*
X1422400Y1041427D01*
X1419779Y1041081D01*
X1417337Y1040070D01*
X1415239Y1038461D01*
X1413630Y1036363D01*
X1412618Y1033921D01*
X1412273Y1031300D01*
X1412618Y1028679D01*
X1413630Y1026237D01*
X1415239Y1024139D01*
X1417337Y1022530D01*
X1418515Y1022042D01*
Y787400D01*
X1418811Y785913D01*
X1419653Y784653D01*
X1425060Y779246D01*
Y764660D01*
X1445140D01*
Y784740D01*
X1430554D01*
X1426285Y789009D01*
Y1022042D01*
X1427463Y1022530D01*
X1429561Y1024139D01*
X1431170Y1026237D01*
X1432182Y1028679D01*
X1432527Y1031300D01*
X1432182Y1033921D01*
X1431693Y1035100D01*
X1494997Y1098403D01*
X1495839Y1099663D01*
X1496135Y1101150D01*
Y1150527D01*
X1497628Y1151672D01*
X1498836Y1153248D01*
X1499596Y1155082D01*
X1499855Y1157050D01*
Y1167050D01*
X1499596Y1169018D01*
X1498836Y1170853D01*
X1497628Y1172428D01*
X1496053Y1173636D01*
X1494218Y1174396D01*
X1492250Y1174655D01*
D02*
G37*
G36*
X1397000D02*
X1395032Y1174396D01*
X1393197Y1173636D01*
X1391622Y1172428D01*
X1391285Y1171988D01*
X1390015D01*
X1389678Y1172428D01*
X1388103Y1173636D01*
X1386268Y1174396D01*
X1384300Y1174655D01*
X1382332Y1174396D01*
X1380497Y1173636D01*
X1378922Y1172428D01*
X1378585Y1171988D01*
X1377315D01*
X1376978Y1172428D01*
X1375403Y1173636D01*
X1373568Y1174396D01*
X1371600Y1174655D01*
X1369632Y1174396D01*
X1367798Y1173636D01*
X1366222Y1172428D01*
X1365014Y1170853D01*
X1364254Y1169018D01*
X1363995Y1167050D01*
Y1157050D01*
X1364254Y1155082D01*
X1365014Y1153248D01*
X1366222Y1151672D01*
X1367798Y1150464D01*
X1369632Y1149704D01*
X1371600Y1149445D01*
X1373568Y1149704D01*
X1375403Y1150464D01*
X1376978Y1151672D01*
X1377315Y1152112D01*
X1378585D01*
X1378922Y1151672D01*
X1380497Y1150464D01*
X1382332Y1149704D01*
X1384300Y1149445D01*
X1386268Y1149704D01*
X1388103Y1150464D01*
X1389678Y1151672D01*
X1390015Y1152112D01*
X1391285D01*
X1391622Y1151672D01*
X1393197Y1150464D01*
X1395032Y1149704D01*
X1397000Y1149445D01*
X1398968Y1149704D01*
X1400802Y1150464D01*
X1402378Y1151672D01*
X1403586Y1153248D01*
X1404346Y1155082D01*
X1404605Y1157050D01*
Y1167050D01*
X1404346Y1169018D01*
X1403586Y1170853D01*
X1402378Y1172428D01*
X1400802Y1173636D01*
X1398968Y1174396D01*
X1397000Y1174655D01*
D02*
G37*
G36*
X1641990Y1112340D02*
X1621910D01*
Y1092260D01*
X1641990D01*
Y1112340D01*
D02*
G37*
G36*
X1371600Y962122D02*
X1369110Y961794D01*
X1366789Y960833D01*
X1364796Y959304D01*
X1363267Y957311D01*
X1362306Y954990D01*
X1361978Y952500D01*
X1362306Y950010D01*
X1363267Y947689D01*
X1364796Y945696D01*
X1366789Y944167D01*
X1369110Y943206D01*
X1371600Y942878D01*
X1374090Y943206D01*
X1376411Y944167D01*
X1378404Y945696D01*
X1379933Y947689D01*
X1380894Y950010D01*
X1381222Y952500D01*
X1380894Y954990D01*
X1379933Y957311D01*
X1378404Y959304D01*
X1376411Y960833D01*
X1374090Y961794D01*
X1371600Y962122D01*
D02*
G37*
G36*
X1584840Y784740D02*
X1564760D01*
Y764660D01*
X1584840D01*
Y784740D01*
D02*
G37*
G36*
X1498600Y784827D02*
X1495979Y784482D01*
X1493537Y783470D01*
X1491439Y781861D01*
X1489830Y779763D01*
X1488818Y777321D01*
X1488473Y774700D01*
X1488818Y772079D01*
X1489830Y769637D01*
X1491439Y767539D01*
X1493537Y765930D01*
X1495979Y764918D01*
X1498600Y764573D01*
X1501221Y764918D01*
X1503663Y765930D01*
X1505761Y767539D01*
X1507370Y769637D01*
X1508382Y772079D01*
X1508727Y774700D01*
X1508382Y777321D01*
X1507370Y779763D01*
X1505761Y781861D01*
X1503663Y783470D01*
X1501221Y784482D01*
X1498600Y784827D01*
D02*
G37*
G36*
X1409700D02*
X1407079Y784482D01*
X1404637Y783470D01*
X1402539Y781861D01*
X1400930Y779763D01*
X1399918Y777321D01*
X1399573Y774700D01*
X1399918Y772079D01*
X1400930Y769637D01*
X1402539Y767539D01*
X1404637Y765930D01*
X1407079Y764918D01*
X1409700Y764573D01*
X1412321Y764918D01*
X1414763Y765930D01*
X1416861Y767539D01*
X1418470Y769637D01*
X1419482Y772079D01*
X1419827Y774700D01*
X1419482Y777321D01*
X1418470Y779763D01*
X1416861Y781861D01*
X1414763Y783470D01*
X1412321Y784482D01*
X1409700Y784827D01*
D02*
G37*
G36*
X1701793Y755648D02*
X1671320D01*
Y737870D01*
X1701793D01*
Y755648D01*
D02*
G37*
G36*
X1424928D02*
X1379220D01*
Y737870D01*
X1424928D01*
Y755648D01*
D02*
G37*
%LPD*%
G36*
X1582122Y1151672D02*
X1583615Y1150527D01*
Y1096409D01*
X1527800Y1040593D01*
X1526621Y1041081D01*
X1524000Y1041427D01*
X1521379Y1041081D01*
X1518937Y1040070D01*
X1516839Y1038461D01*
X1515230Y1036363D01*
X1514218Y1033921D01*
X1513873Y1031300D01*
X1514218Y1028679D01*
X1515230Y1026237D01*
X1516839Y1024139D01*
X1518937Y1022530D01*
X1520115Y1022042D01*
Y985340D01*
X1513960D01*
Y965260D01*
X1512789Y965021D01*
X1507321D01*
X1461723Y1010619D01*
X1460463Y1011461D01*
X1458976Y1011757D01*
X1448562D01*
X1447075Y1011461D01*
X1445815Y1010619D01*
X1443318Y1008121D01*
X1442144Y1008607D01*
Y1011231D01*
X1516435Y1085521D01*
X1564640D01*
X1566127Y1085817D01*
X1567387Y1086659D01*
X1577547Y1096819D01*
X1578389Y1098079D01*
X1578685Y1099566D01*
Y1150527D01*
X1580178Y1151672D01*
X1580515Y1152112D01*
X1581785D01*
X1582122Y1151672D01*
D02*
G37*
G36*
X1677372Y1151672D02*
X1678865Y1150527D01*
Y1053169D01*
X1626531Y1000835D01*
X1602567D01*
X1602183Y1001761D01*
X1600654Y1003754D01*
X1598661Y1005283D01*
X1596340Y1006244D01*
X1593850Y1006572D01*
X1593326Y1006503D01*
X1592764Y1007642D01*
X1612537Y1027415D01*
X1622692D01*
X1623180Y1026237D01*
X1624789Y1024139D01*
X1626887Y1022530D01*
X1629329Y1021518D01*
X1631950Y1021173D01*
X1634571Y1021518D01*
X1637013Y1022530D01*
X1639111Y1024139D01*
X1640720Y1026237D01*
X1641732Y1028679D01*
X1642077Y1031300D01*
X1641732Y1033921D01*
X1641243Y1035100D01*
X1672797Y1066653D01*
X1673639Y1067913D01*
X1673935Y1069400D01*
Y1150527D01*
X1675428Y1151672D01*
X1675765Y1152112D01*
X1677035D01*
X1677372Y1151672D01*
D02*
G37*
G36*
X1474172D02*
X1475665Y1150527D01*
Y1138259D01*
X1433613Y1096207D01*
X1432440Y1096693D01*
Y1106846D01*
X1469597Y1144003D01*
X1470439Y1145264D01*
X1470735Y1146750D01*
Y1150527D01*
X1472228Y1151672D01*
X1472565Y1152112D01*
X1473835D01*
X1474172Y1151672D01*
D02*
G37*
D12*
X1582928Y1003300D02*
X1610928Y1031300D01*
X1540764Y961136D02*
X1582928Y1003300D01*
X1443340Y984960D02*
X1524000Y904300D01*
X1443340Y984960D02*
Y1002650D01*
X1448562Y1007872D01*
X1458976D01*
X1505712Y961136D01*
X1540764D01*
X1582928Y836422D02*
X1644650Y774700D01*
X1582928Y836422D02*
Y1003300D01*
X1610928Y1031300D02*
X1631950D01*
X1422400Y787400D02*
Y1031300D01*
Y787400D02*
X1435100Y774700D01*
X1656080Y932180D02*
X1676400Y952500D01*
X1656080Y763778D02*
Y932180D01*
X1645920Y753618D02*
X1656080Y763778D01*
X1545082Y753618D02*
X1645920D01*
X1524000Y774700D02*
X1545082Y753618D01*
X1479550Y1136650D02*
Y1162050D01*
X1371600Y1028700D02*
X1479550Y1136650D01*
X1422400Y1031300D02*
X1492250Y1101150D01*
Y1162050D01*
X1549400Y774700D02*
Y901700D01*
X1454150Y996950D02*
X1549400Y901700D01*
X1574800Y1099566D02*
Y1162050D01*
X1564640Y1089406D02*
X1574800Y1099566D01*
X1514825Y1089406D02*
X1564640D01*
X1438260Y1012840D02*
X1514825Y1089406D01*
X1438260Y936640D02*
Y1012840D01*
Y936640D02*
X1454150Y920750D01*
X1466850Y1146750D02*
Y1162050D01*
X1422400Y1102300D02*
X1466850Y1146750D01*
X1670050Y1069400D02*
Y1162050D01*
X1631950Y1031300D02*
X1670050Y1069400D01*
X1593850Y996950D02*
X1628140D01*
X1682750Y1051560D01*
Y1162050D01*
X1587500Y1094800D02*
Y1162050D01*
X1524000Y1031300D02*
X1587500Y1094800D01*
X1524000Y975300D02*
Y1031300D01*
X1428750Y1253485D02*
Y1238250D01*
Y1245867D01*
X1438907D01*
Y1253485D01*
Y1238250D01*
X1443985Y1235711D02*
X1454142D01*
X1459220Y1253485D02*
Y1238250D01*
X1466838D01*
X1469377Y1240789D01*
Y1243328D01*
X1466838Y1245867D01*
X1459220D01*
X1466838D01*
X1469377Y1248407D01*
Y1250946D01*
X1466838Y1253485D01*
X1459220D01*
X1474455Y1248407D02*
Y1238250D01*
Y1243328D01*
X1476994Y1245867D01*
X1479534Y1248407D01*
X1482073D01*
X1489690Y1238250D02*
X1494769D01*
X1492229D01*
Y1248407D01*
X1489690D01*
X1512543Y1253485D02*
Y1238250D01*
X1504925D01*
X1502386Y1240789D01*
Y1245867D01*
X1504925Y1248407D01*
X1512543D01*
X1522700Y1233172D02*
X1525239D01*
X1527778Y1235711D01*
Y1248407D01*
X1520160D01*
X1517621Y1245867D01*
Y1240789D01*
X1520160Y1238250D01*
X1527778D01*
X1540474D02*
X1535396D01*
X1532856Y1240789D01*
Y1245867D01*
X1535396Y1248407D01*
X1540474D01*
X1543013Y1245867D01*
Y1243328D01*
X1532856D01*
X1563327Y1238250D02*
Y1253485D01*
X1568405Y1248407D01*
X1573483Y1253485D01*
Y1238250D01*
X1581101D02*
X1586179D01*
X1588718Y1240789D01*
Y1245867D01*
X1586179Y1248407D01*
X1581101D01*
X1578562Y1245867D01*
Y1240789D01*
X1581101Y1238250D01*
X1596336Y1250946D02*
Y1248407D01*
X1593797D01*
X1598875D01*
X1596336D01*
Y1240789D01*
X1598875Y1238250D01*
X1609032D02*
X1614110D01*
X1616649Y1240789D01*
Y1245867D01*
X1614110Y1248407D01*
X1609032D01*
X1606492Y1245867D01*
Y1240789D01*
X1609032Y1238250D01*
X1621728Y1248407D02*
Y1238250D01*
Y1243328D01*
X1624267Y1245867D01*
X1626806Y1248407D01*
X1629345D01*
X1384300Y742950D02*
Y750567D01*
X1386839Y748028D01*
X1389378Y750567D01*
Y742950D01*
X1395726Y750567D02*
X1393187D01*
X1391918Y749298D01*
Y744220D01*
X1393187Y742950D01*
X1395726D01*
X1396996Y744220D01*
Y749298D01*
X1395726Y750567D01*
X1399535D02*
X1404613D01*
X1402074D01*
Y742950D01*
X1410961Y750567D02*
X1408422D01*
X1407153Y749298D01*
Y744220D01*
X1408422Y742950D01*
X1410961D01*
X1412231Y744220D01*
Y749298D01*
X1410961Y750567D01*
X1414770Y742950D02*
Y750567D01*
X1418579D01*
X1419848Y749298D01*
Y746759D01*
X1418579Y745489D01*
X1414770D01*
X1417309D02*
X1419848Y742950D01*
X1676400D02*
Y750567D01*
X1680209D01*
X1681478Y749298D01*
Y746759D01*
X1680209Y745489D01*
X1676400D01*
X1689096Y749298D02*
X1687826Y750567D01*
X1685287D01*
X1684017Y749298D01*
Y748028D01*
X1685287Y746759D01*
X1687826D01*
X1689096Y745489D01*
Y744220D01*
X1687826Y742950D01*
X1685287D01*
X1684017Y744220D01*
X1691635Y750567D02*
Y744220D01*
X1692905Y742950D01*
X1695444D01*
X1696713Y744220D01*
Y750567D01*
X1490978Y749298D02*
X1489709Y750567D01*
X1487170D01*
X1485900Y749298D01*
Y744220D01*
X1487170Y742950D01*
X1489709D01*
X1490978Y744220D01*
X1497326Y750567D02*
X1494787D01*
X1493517Y749298D01*
Y744220D01*
X1494787Y742950D01*
X1497326D01*
X1498596Y744220D01*
Y749298D01*
X1497326Y750567D01*
X1501135Y742950D02*
Y750567D01*
X1506213Y742950D01*
Y750567D01*
X1508753D02*
X1513831D01*
X1511292D01*
Y742950D01*
X1516370D02*
Y750567D01*
X1520179D01*
X1521449Y749298D01*
Y746759D01*
X1520179Y745489D01*
X1516370D01*
X1518909D02*
X1521449Y742950D01*
X1527796Y750567D02*
X1525257D01*
X1523988Y749298D01*
Y744220D01*
X1525257Y742950D01*
X1527796D01*
X1529066Y744220D01*
Y749298D01*
X1527796Y750567D01*
X1531605D02*
Y742950D01*
X1536684D01*
D20*
X1670050Y774700D02*
D03*
X1435100D02*
D03*
X1574800D02*
D03*
D21*
X1644650D02*
D03*
X1524000Y1031300D02*
D03*
X1422400D02*
D03*
X1409700Y774700D02*
D03*
X1498600D02*
D03*
X1524000D02*
D03*
X1549400D02*
D03*
X1524000Y904300D02*
D03*
X1631950Y1031300D02*
D03*
D22*
X1397000Y1162050D02*
D03*
X1371600D02*
D03*
X1492250D02*
D03*
X1466850D02*
D03*
X1587500D02*
D03*
X1562100D02*
D03*
X1695450D02*
D03*
X1670050D02*
D03*
D23*
X1384300D02*
D03*
X1479550D02*
D03*
X1574800D02*
D03*
X1682750D02*
D03*
D24*
X1676400Y1028700D02*
D03*
Y952500D02*
D03*
X1371600Y1028700D02*
D03*
Y952500D02*
D03*
X1454150Y996950D02*
D03*
Y920750D02*
D03*
X1593850Y996950D02*
D03*
Y920750D02*
D03*
D25*
X1524000Y1102300D02*
D03*
X1422400D02*
D03*
X1524000Y975300D02*
D03*
X1631950Y1102300D02*
D03*
M02*
