G04*
G04 #@! TF.GenerationSoftware,Altium Limited,Altium Designer,20.0.2 (26)*
G04*
G04 Layer_Color=8388736*
%FSLAX44Y44*%
%MOMM*%
G71*
G01*
G75*
%ADD14R,1.7032X1.7032*%
%ADD15C,1.7032*%
%ADD16O,1.2032X2.2032*%
%ADD17O,1.2032X2.2032*%
%ADD18C,1.6032*%
%ADD19R,1.7032X1.7032*%
D14*
X1670050Y774700D02*
D03*
X1435100D02*
D03*
X1574800D02*
D03*
D15*
X1644650D02*
D03*
X1524000Y1031300D02*
D03*
X1422400D02*
D03*
X1409700Y774700D02*
D03*
X1498600D02*
D03*
X1524000D02*
D03*
X1549400D02*
D03*
X1524000Y904300D02*
D03*
X1631950Y1031300D02*
D03*
D16*
X1397000Y1162050D02*
D03*
X1371600D02*
D03*
X1492250D02*
D03*
X1466850D02*
D03*
X1587500D02*
D03*
X1562100D02*
D03*
X1695450D02*
D03*
X1670050D02*
D03*
D17*
X1384300D02*
D03*
X1479550D02*
D03*
X1574800D02*
D03*
X1682750D02*
D03*
D18*
X1676400Y1028700D02*
D03*
Y952500D02*
D03*
X1371600Y1028700D02*
D03*
Y952500D02*
D03*
X1454150Y996950D02*
D03*
Y920750D02*
D03*
X1593850Y996950D02*
D03*
Y920750D02*
D03*
D19*
X1524000Y1102300D02*
D03*
X1422400D02*
D03*
X1524000Y975300D02*
D03*
X1631950Y1102300D02*
D03*
M02*
